PathFileType	4	(X/Y/Z)	E:\3-PhD\Data\MocapData\ElaboratedData\012\pre\dynamicElaborations\Run_baselineA1\Run_baselineA1.trc
DataRate	CameraRate	NumFrames	NumMarkers	Units	OrigDataRate	OrigDataStartFrame	OrigNumFrames
200	200	4	56	mm	200	8.290000e+02	106
Frame#	Time	FHD			LBHD			RBHD			C7			T10			CLAV			LSHO			LUUPA			LMUPA			LDUPA			LLEP			LMEP			LRAD			LUL			LRFIN			RSHO			RUPA1			RMUPA			RDUPA			RLEP			RMEP			RRAD			RUL			RUFIN			LASI			RASI			USACR			LSACR			RSACR			LTHI1			LTHI2			LTHI3			LTHI4			LLFC			LTIB1			LTIB2			LTIB3			LTIB4			LHEE			LMT1			LMT5			LMT2			RTHI			RTHI2			RTHI3			RTHI4			RLFC			RTIB1			RTIB2			RTIB3			RTIB4			RLMAL			RHEE			RMT1			RMT2			RMT5		
		X1	Y1	Z1	X2	Y2	Z2	X3	Y3	Z3	X4	Y4	Z4	X5	Y5	Z5	X6	Y6	Z6	X7	Y7	Z7	X8	Y8	Z8	X9	Y9	Z9	X10	Y10	Z10	X11	Y11	Z11	X12	Y12	Z12	X13	Y13	Z13	X14	Y14	Z14	X15	Y15	Z15	X16	Y16	Z16	X17	Y17	Z17	X18	Y18	Z18	X19	Y19	Z19	X20	Y20	Z20	X21	Y21	Z21	X22	Y22	Z22	X23	Y23	Z23	X24	Y24	Z24	X25	Y25	Z25	X26	Y26	Z26	X27	Y27	Z27	X28	Y28	Z28	X29	Y29	Z29	X30	Y30	Z30	X31	Y31	Z31	X32	Y32	Z32	X33	Y33	Z33	X34	Y34	Z34	X35	Y35	Z35	X36	Y36	Z36	X37	Y37	Z37	X38	Y38	Z38	X39	Y39	Z39	X40	Y40	Z40	X41	Y41	Z41	X42	Y42	Z42	X43	Y43	Z43	X44	Y44	Z44	X45	Y45	Z45	X46	Y46	Z46	X47	Y47	Z47	X48	Y48	Z48	X49	Y49	Z49	X50	Y50	Z50	X51	Y51	Z51	X52	Y52	Z52	X53	Y53	Z53	X54	Y54	Z54	X55	Y55	Z55	X56	Y56	Z56	
895	4.470000	-1387.031838	1756.171908	352.270241	-1547.322662	1752.905005	256.754297	-1527.588791	1735.035123	407.467665	-1593.549932	1575.397134	348.272640	-1740.111512	1260.618216	358.185787	-1478.344232	1467.690550	295.232113	-1533.442966	1586.151062	174.203103	-1676.068443	1458.454183	33.746337	-1654.123937	1416.227529	23.264592	-1713.005531	1403.823052	10.518900	-1742.313661	1325.731705	-22.972755	-1766.541758	1306.025171	59.450163	-1607.447272	1077.424141	-25.236044	-1653.845098	1072.683530	-87.844853	-1566.255195	1004.439263	-50.488591	-1456.626427	1509.632598	467.873237	-1559.073683	1315.087583	581.089075	-1527.765322	1280.553276	565.214208	-1572.109788	1246.933495	583.851139	-1582.614091	1174.016282	583.689559	-1639.416786	1173.259411	513.175545	-1386.592592	1113.237858	388.829274	-1373.790045	1048.874619	431.678190	-1311.255629	1085.949459	351.237171	-1665.745145	1027.734022	198.652123	-1651.900958	988.739976	424.243741	-1799.553099	1134.172010	343.044044	-1823.531939	1109.540695	315.366025	-1813.245969	1104.295687	370.598676	-1660.354822	803.569212	121.423252	-1581.252031	766.802404	127.560917	-1548.416788	794.725345	150.542131	-1571.555217	709.134286	133.644034	-1488.161282	578.977830	153.249121	-1437.685435	398.713064	217.826552	-1449.453448	357.199819	143.622618	-1425.147650	352.895586	182.449923	-1426.379602	273.526325	210.676619	-1486.605481	60.472410	206.825081	-1300.149580	145.865032	258.321528	-1302.781021	126.426620	157.793155	-1283.459871	156.848084	206.029894	-1836.102882	697.341585	460.848276	-1818.422678	633.301648	445.800119	-1788.878602	624.231233	434.922662	-1874.460342	573.313980	429.132434	-1936.052855	485.232257	398.277634	-2050.180527	427.653218	350.860711	-2130.707011	491.528486	389.545141	-2132.577360	449.302655	371.291825	-2178.431056	439.642889	337.152709	-2351.188489	506.410702	338.279154	-2373.604082	565.599870	292.626365	-2405.381412	348.935707	240.726309	-2408.300277	342.689122	284.113992	-2435.775998	379.103302	336.046367	
896	4.475000	-1359.268967	1755.499457	350.353448	-1519.054859	1751.803535	254.008351	-1500.080126	1734.103609	404.769827	-1565.007529	1574.607370	345.650399	-1711.565590	1259.962606	356.771233	-1450.010662	1466.602014	293.582033	-1504.850398	1583.679159	170.741302	-1643.745511	1450.515004	29.904947	-1620.655748	1408.599075	20.898666	-1679.003338	1394.509684	7.516979	-1706.445678	1315.528242	-24.572760	-1731.545930	1296.621103	57.759439	-1565.499360	1071.141714	-20.713094	-1610.986992	1064.165388	-83.662138	-1521.494443	999.704788	-44.835183	-1429.139249	1508.202005	466.915738	-1535.968737	1316.209938	580.667085	-1505.116771	1280.947400	565.184949	-1550.164600	1248.318397	584.031937	-1561.959434	1175.788542	584.790204	-1617.346211	1174.496807	513.928874	-1365.998373	1100.986102	394.613398	-1356.378476	1037.467533	439.693237	-1291.521241	1069.000617	358.664101	-1637.445280	1027.515194	197.095512	-1621.653678	988.378640	422.992080	-1771.003011	1132.118575	343.665197	-1795.032936	1107.400595	316.345998	-1784.371016	1102.139935	371.535972	-1634.424490	800.379938	120.711257	-1555.956970	762.321635	126.026744	-1521.979634	789.899733	147.250767	-1547.139390	704.482033	132.216821	-1465.515589	572.795233	150.548622	-1416.919326	392.029309	215.222163	-1430.923645	350.199063	141.868026	-1405.674401	345.841914	179.849954	-1407.742046	266.709062	208.817394	-1472.356891	56.195196	206.999677	-1283.561770	136.628154	255.254814	-1288.199416	116.521007	155.066007	-1267.495612	146.732772	202.692261	-1799.541585	693.305175	460.015774	-1779.881710	629.618044	445.502768	-1749.955444	621.285889	434.728010	-1834.144320	568.149569	428.510708	-1892.751641	480.250920	397.428740	-2007.605239	426.721022	349.566305	-2086.032501	493.446214	388.021413	-2089.263216	451.541272	369.499473	-2135.206997	443.725568	335.220378	-2305.423339	517.448961	335.818364	-2326.412061	576.938725	289.480033	-2363.846462	360.456013	240.758804	-2366.787512	354.809330	284.191344	-2392.891146	392.602758	335.842622	
897	4.480000	-1331.577879	1754.603778	348.494589	-1490.838645	1750.455340	251.283064	-1472.644865	1732.902263	402.093225	-1536.657100	1573.543238	342.950802	-1683.026385	1258.911557	355.315940	-1421.705502	1465.231902	292.030145	-1476.121161	1581.000920	167.309432	-1610.939169	1442.321194	26.270913	-1586.734917	1400.775381	18.739908	-1644.489059	1385.000814	4.749538	-1669.917560	1305.084576	-25.963059	-1695.973507	1286.956814	56.168799	-1522.784325	1065.073904	-15.586945	-1567.269711	1055.706690	-78.842282	-1475.980187	995.300803	-38.425299	-1401.977421	1506.607125	466.046475	-1513.271621	1317.282974	580.204879	-1482.840939	1281.304521	565.220314	-1528.603047	1249.661356	584.160861	-1541.689148	1177.556577	585.873963	-1595.598759	1175.678311	514.619934	-1346.321862	1088.476789	401.164946	-1339.999907	1026.003355	448.444036	-1272.912507	1051.881219	367.142136	-1609.062811	1027.040181	195.457183	-1591.483194	987.776383	421.710121	-1742.418607	1129.851886	344.192465	-1766.494092	1105.070807	317.201162	-1755.486827	1099.766992	372.357372	-1608.580410	797.061632	120.068626	-1530.817688	757.713210	124.666293	-1495.701447	784.910484	143.967873	-1522.897379	699.711438	130.933911	-1443.159139	566.456905	147.935606	-1397.071655	385.071854	212.644632	-1413.460439	343.088727	140.098650	-1387.307008	338.515771	177.263641	-1390.579266	259.634660	206.932433	-1460.691793	52.483692	207.058893	-1269.106821	126.456809	251.944867	-1276.059072	105.906168	152.076869	-1253.692844	135.623893	199.126390	-1762.604548	689.149146	459.125687	-1740.847200	625.896100	445.228831	-1710.534286	618.350336	434.551535	-1793.165580	562.904408	427.905028	-1848.604378	475.089270	396.676977	-1963.884361	425.397922	348.364744	-2040.298158	494.575978	386.712896	-2044.809740	453.049934	367.764814	-2090.750840	446.989370	333.439972	-2258.295472	527.100834	333.678501	-2278.244035	586.705046	286.524522	-2320.616774	370.262068	241.542085	-2323.368429	365.326934	285.044722	-2348.107790	404.445541	336.291735	
898	4.485000	-1303.961995	1753.504012	346.701685	-1462.672565	1748.885275	248.580353	-1445.290362	1731.449807	399.443276	-1508.501024	1572.228069	340.140802	-1654.488622	1257.473363	353.830066	-1393.420665	1463.590730	290.578817	-1447.257660	1578.149589	163.923451	-1577.621496	1433.941432	22.900897	-1552.335641	1392.830010	16.835519	-1609.431994	1375.371415	2.249644	-1632.716632	1294.477298	-27.113686	-1659.789980	1277.079161	54.708645	-1479.354043	1059.312374	-9.827132	-1522.727355	1047.417777	-73.345996	-1429.788441	991.321849	-31.239279	-1375.149815	1504.879188	465.258310	-1490.990676	1318.330083	579.676517	-1460.940571	1281.652917	565.316091	-1507.427705	1250.987857	584.212242	-1521.800798	1179.336904	586.917240	-1574.154243	1176.821796	515.212180	-1327.600196	1075.839637	408.498212	-1324.675811	1014.623280	457.915953	-1255.466804	1034.761494	376.672504	-1580.649114	1026.287398	193.772194	-1561.381855	986.921007	420.404677	-1713.811579	1127.407587	344.601228	-1737.933183	1102.589347	317.906598	-1726.599523	1097.211383	373.030137	-1582.892869	793.630814	119.408348	-1505.884408	752.996307	123.376981	-1469.686013	779.746954	140.732484	-1498.877077	694.838902	129.671529	-1421.075437	560.034756	145.380792	-1378.080118	377.989735	210.139959	-1396.870618	336.021658	138.330080	-1369.910328	331.082091	174.761788	-1374.754656	252.482798	205.075314	-1451.329373	49.499361	207.029338	-1256.654468	115.664040	248.513101	-1266.135004	94.910370	148.944956	-1241.880834	123.838212	195.464817	-1725.258675	684.928441	458.210149	-1701.301949	622.207076	444.987743	-1670.609802	615.500597	434.396364	-1751.507127	557.657070	427.330307	-1803.601112	469.811236	396.020939	-1919.054759	423.720791	347.259618	-1993.571758	494.959662	385.632536	-1999.280310	453.851617	366.109479	-2045.149823	449.461092	331.889729	-2209.971296	535.312509	331.927094	-2229.302589	594.900998	283.890467	-2275.829660	378.367003	242.933374	-2278.180845	374.193317	286.525468	-2301.572196	414.530867	337.326628	
